<svg width="24" height="24" viewBox="0 0 24 24" fill="none" xmlns="http://www.w3.org/2000/svg">
<path d="M4.21726 12.6549C4.03098 12.4661 3.92733 12.2111 3.92911 11.9459C3.93089 11.6807 4.03795 11.427 4.22674 11.2407L11.3451 4.21726C11.5339 4.03098 11.7889 3.92734 12.0541 3.92911C12.3193 3.93089 12.573 4.03795 12.7593 4.22674L19.7827 11.3451C19.969 11.5339 20.0727 11.7889 20.0709 12.0541C20.0691 12.3193 19.962 12.573 19.7733 12.7593C19.5845 12.9455 19.3294 13.0492 19.0642 13.0474C18.799 13.0456 18.5453 12.9386 18.3591 12.7498L12.0379 6.34327L5.63144 12.6644C5.44265 12.8507 5.18759 12.9543 4.92238 12.9526C4.65717 12.9508 4.40353 12.8437 4.21726 12.6549Z" fill="#6563FF"/>
<path d="M11.2506 19.7711C11.1582 19.6778 11.0852 19.5671 11.0357 19.4455C10.9862 19.3238 10.9613 19.1936 10.9623 19.0622L11.0504 4.92037C11.0566 4.65823 11.1655 4.40902 11.3537 4.2264C11.5418 4.04378 11.7942 3.94236 12.0564 3.944C12.3186 3.94563 12.5696 4.05018 12.7555 4.23514C12.9414 4.42009 13.0471 4.67064 13.0501 4.93283L12.9619 19.0747C12.9607 19.2724 12.9008 19.4654 12.7899 19.6291C12.679 19.7928 12.522 19.92 12.3389 19.9945C12.1557 20.0691 11.9546 20.0876 11.7609 20.0479C11.5671 20.0081 11.3896 19.9118 11.2506 19.7711Z" fill="#6563FF"/>
</svg>
